<?xml version="1.0" encoding="utf-8"?>
<!-- Generator: Adobe Illustrator 27.2.0, SVG Export Plug-In . SVG Version: 6.00 Build 0)  -->
<svg version="1.1" id="Layer_1" xmlns="http://www.w3.org/2000/svg" xmlns:xlink="http://www.w3.org/1999/xlink" x="0px" y="0px"
	 viewBox="0 0 452.7 532.7" style="enable-background:new 0 0 452.7 532.7;" xml:space="preserve">
<path d="M449.1,272.2l-50.4-76.7c-2.8-4.5-3.9-9.5-4.5-15.1C385.3,79.5,300.7,0,197.7,0C88.5,0,0,88.5,0,197.7
	c0,65,31.4,128.2,79.5,169.7c5.6,5,9.5,11.8,9.5,19.6v113.1c0,9,6.7,16.2,15.7,17.4l169.7,15.1c10.1,1.1,18.5-7.3,18.5-17.4v-80.6
	c0-5,4.5-9.5,9.5-9.5h59.4c18.5,0,33-14.6,33-33v-79.5c0-3.4,2.8-6.7,6.7-6.7h29.1C448,306.3,458.6,286.7,449.1,272.2L449.1,272.2z
	 M274.4,207.8c-6.7,0-12.9-1.7-19-4.5c-7.8,7.8-19,12.9-31.4,12.9c-5,0-9.5-1.1-14-2.2c-6.2,9-16.8,15.1-28.6,15.1h-1.7
	c-13.4,22.4-16.8,60.5-17.4,80.6c0,6.7-6.7,11.8-13.4,10.1l-6.7-1.7c-5-1.1-9-6.2-8.4-11.2c1.1-19-3.4-49.3-6.2-68.3
	c-18.5-3.4-33-19-33-38.6c0-2.8,0.6-5,0.6-7.8c-11.2-7.3-18.5-19-18.5-33.6c0-17.9,12.3-33,28.6-38.1c1.1-21.8,19-39.8,41.4-39.8
	c7.3,0,14,2.2,19.6,5c7.3-11.8,20.2-19,35.3-19c14.6,0,27.4,7.3,34.7,18.5c3.9-1.1,8.4-2.2,12.9-2.2c21.8,0,39.2,16.8,41.4,37.5
	c16.8,6.7,28.6,22.4,28.6,42C319.2,187.6,299,207.8,274.4,207.8L274.4,207.8z"/>
</svg>
