<?xml version="1.0" encoding="utf-8"?>
<!-- Generator: Adobe Illustrator 27.2.0, SVG Export Plug-In . SVG Version: 6.00 Build 0)  -->
<svg version="1.1" id="Layer_1" xmlns="http://www.w3.org/2000/svg" xmlns:xlink="http://www.w3.org/1999/xlink" x="0px" y="0px"
	 viewBox="0 0 560.5 290.9" style="enable-background:new 0 0 560.5 290.9;" xml:space="preserve">
<path d="M560,187.6v-0.4c-0.2-1.9-0.5-3.8-1.1-5.6c-7.3-33.6-32.5-64-66.1-72.6c-16.6-4-33.4-6.9-50.4-8.5c-13-0.7-24.8-7.4-32-18.3
	C380.6,39.5,338.9,15,287.8,5.7C239.9-2,191.1-1.9,143.2,6.1C115.6,9.8,91,25.8,76.4,49.6C70.3,59,65.6,69.5,59,78.6
	c-6.2,9.9-14,18.7-23,26.2c-16,10.3-27.1,26.7-30.9,45.4C2.8,162.5,1.3,175,0,187.6h0.3c-0.1,1.3-0.1,2.5,0,3.8v28
	c0.2,6.1,5.1,10.9,11.2,10.9h42c2.3-22.4,15.7-42.2,35.5-52.8c19.9-10.6,43.7-10.6,63.6,0c19.9,10.6,33.2,30.4,35.5,52.8h200.3v-2.5
	c0.7-23.7,13.7-45.4,34.4-57.1c20.7-11.7,46-11.7,66.6,0s33.7,33.3,34.4,57.1v2.5h25.4c6.1,0,11-4.8,11.2-10.9V189c0-0.5,0-1,0-1.5
	L560,187.6z M220.6,112.2c-33.6,0-66.3,0.8-99-0.4c-16.1-0.6-19.8-9.1-13.9-24.3c19.7-50.4,51.5-66.9,112.8-57.5V112.2z
	 M365.2,112.2c-36.5,0.6-72.8,0-111.4,0V30.9C295.9,23.1,359,55.6,377,94c5.5,12,2.3,18.3-11.8,18.5L365.2,112.2z"/>
<path d="M120.2,184.4c-14.1,0-27.7,5.7-37.6,15.7s-15.5,23.6-15.5,37.7c0,14.1,5.7,27.7,15.7,37.6c10,10,23.6,15.5,37.7,15.5
	c14.1-0.1,27.7-5.7,37.6-15.7c10-10,15.5-23.6,15.5-37.7c0-14.1-5.7-27.6-15.7-37.6C147.9,189.9,134.3,184.4,120.2,184.4z
	 M120.2,261.3L120.2,261.3c-6.3,0-12.3-2.5-16.8-6.9c-4.4-4.4-6.9-10.5-6.9-16.8c0-6.3,2.5-12.3,7-16.8c4.4-4.4,10.5-6.9,16.8-6.9
	c6.3,0,12.3,2.5,16.7,7c4.4,4.5,6.9,10.5,6.9,16.8c-0.1,6.2-2.6,12.2-7,16.6c-4.4,4.4-10.4,6.8-16.7,6.8L120.2,261.3z"/>
<path d="M509.6,227.9c0-14.1-5.6-27.7-15.6-37.7c-10-10-23.5-15.6-37.7-15.6c-14.1,0-27.7,5.6-37.7,15.6c-10,10-15.6,23.5-15.6,37.7
	c0,14.1,5.6,27.7,15.6,37.7c10,10,23.6,15.6,37.7,15.6c14.1,0,27.7-5.6,37.6-15.6C504,255.5,509.6,242,509.6,227.9L509.6,227.9z
	 M432.7,227.9L432.7,227.9c0-6.3,2.5-12.3,7-16.8c4.5-4.4,10.5-6.9,16.8-6.9c6.3,0,12.3,2.6,16.7,7.1c4.4,4.5,6.9,10.5,6.8,16.8
	c-0.1,6.3-2.6,12.3-7.1,16.7c-4.5,4.4-10.6,6.8-16.9,6.8c-6.3,0-12.3-2.5-16.8-7c-4.4-4.5-6.9-10.5-6.9-16.8L432.7,227.9z"/>
</svg>
