<?xml version="1.0" encoding="utf-8"?>
<!-- Generator: Adobe Illustrator 27.2.0, SVG Export Plug-In . SVG Version: 6.00 Build 0)  -->
<svg version="1.1" id="Layer_1" xmlns="http://www.w3.org/2000/svg" xmlns:xlink="http://www.w3.org/1999/xlink" x="0px" y="0px"
	 viewBox="0 0 507.5 367.5" style="enable-background:new 0 0 507.5 367.5;" xml:space="preserve">
<g>
	<path d="M88.2,219.7c-18.2-10-27.4-19.7-35.6-32.1c-7.3-10.9-17.3-30.3-26.2-47.5c-5.8-11.2-11.2-21.9-15.6-29.3
		C-2.9,87.3-0.3,79.6,1.4,77.4c3.4-4.1,14-4,28.1-0.1c2.3,12.5,8.6,28.4,19.5,47.8c6.3,11.4,13.8,30.6,21.6,50.9
		C76.3,191,82.2,206.3,88.2,219.7L88.2,219.7z"/>
	<path d="M507.5,227.9v127.6c0,6.6-5.3,12-11.9,12H409c-6.5,0-11.9-5.4-11.9-12V353c-0.1-2.2-1.9-4.1-4.3-4.1
		c-0.1,0-0.2-0.1-0.3-0.1h-0.2c-32.8,1.6-142.8,5.9-180.3-7.6c-33.3-12.1-82.6-69.9-101.7-98.3c-10.2-15.3-21-43.2-31.4-70.1
		c-7.9-20.6-15.4-40-22.1-52C34.4,80.5,36.3,65.4,39.5,59.9c2.4-4.1,6.6-4.3,7.6-4.4c24-4.3,44.6,37.8,62.8,75
		c10.7,21.9,20.8,42.6,31.5,53.5c28.5,29.1,52.7,39.7,72,31.7c24.1-10.1,31.1-45.9,30.7-61.6c-1.3-48.2,14.7-87,38.7-94.4
		c9.5-2.9,16.1-2.6,19.7,0.7c3.8,3.7,7,13.8-0.3,40.8c-4.7,17.6-4.5,34.7-4.3,41.3c0.3,4.3,0.8,9.2,4.8,15.5
		c4,6.1,8.2,8.6,11.3,10.4l0.7,0.5c29.8,18.6,38.2,53.3,40.5,72.3c0,0.2,0.1,0.3,0.1,0.4c0.1,0.3,0.2,0.5,0.4,0.9
		c0.1,0.3,0.2,0.4,0.4,0.7c0.1,0.1,0.1,0.3,0.2,0.4c0.1,0.1,0.2,0.1,0.4,0.3c0.3,0.3,0.5,0.5,0.9,0.7c0.2,0.1,0.4,0.2,0.6,0.3
		c0.4,0.2,0.7,0.3,1.1,0.3c0.2,0,0.4,0.1,0.5,0.1h0.2h0.4c0.8-0.1,1.5-0.4,2.1-0.9h0.2c8.5-6.7,17.9-9.6,25.4-10.8V312
		c0,2.5,2,4.5,4.5,4.5c2.5,0,4.5-2,4.5-4.5v-83.9V228v-0.2c0-6.6,5.3-12,11.9-12h86.6C502.1,215.8,507.5,221.2,507.5,227.9
		L507.5,227.9z"/>
	<path d="M173.9,0c-42.7,0-77.3,35-77.3,78c0,43.1,34.6,78,77.3,78c42.6,0,77.3-35,77.3-78C251.2,35,216.5,0,173.9,0z M200.6,100.4
		c0,13.3-9.6,24.3-22.2,26.5v4.6c0,2.4-2.1,4.5-4.5,4.5c-2.5,0-4.5-2.1-4.5-4.5l0-4.6c-12.6-2.2-22.2-13.2-22.2-26.5
		c0-2.5,2-4.5,4.5-4.5c2.4,0,4.5,2,4.5,4.5c0,8.3,5.6,15.2,13.1,17.3V82c-12.6-2.2-22.2-13.2-22.2-26.4c0-13.3,9.6-24.4,22.2-26.5
		v-4.6c0-2.5,2-4.5,4.5-4.5c2.4,0,4.5,2,4.5,4.5v4.6c12.6,2.2,22.2,13.2,22.2,26.5c0,2.4-2,4.5-4.5,4.5c-2.5,0-4.5-2.1-4.5-4.5
		c0-8.4-5.6-15.3-13.1-17.4v35.7C191,76.2,200.6,87.1,200.6,100.4L200.6,100.4z"/>
	<path d="M178.4,117.7c7.5-2.1,13.1-9,13.1-17.3c0-8.4-5.6-15.3-13.1-17.3V117.7z"/>
	<path d="M156.2,55.6c0,8.3,5.6,15.2,13.1,17.3V38.2C161.8,40.3,156.2,47.2,156.2,55.6L156.2,55.6z"/>
</g>
</svg>
