<?xml version="1.0" encoding="utf-8"?>
<!-- Generator: Adobe Illustrator 27.2.0, SVG Export Plug-In . SVG Version: 6.00 Build 0)  -->
<svg version="1.1" id="Layer_1" xmlns="http://www.w3.org/2000/svg" xmlns:xlink="http://www.w3.org/1999/xlink" x="0px" y="0px"
	 viewBox="0 0 528.8 521.9" style="enable-background:new 0 0 528.8 521.9;" xml:space="preserve">
<style type="text/css">
	.st0{fill-rule:evenodd;clip-rule:evenodd;}
</style>
<g>
	<path class="st0" d="M155.2,0h302.5v62.3c0,4.9,3.9,8.8,8.8,8.8h62.3v416.3c0,6.1-4.9,11-11,11H251.9c20.2-18,35.8-41,45-67.1
		h187.2c4.9,0,8.8-3.9,8.8-8.8c0-4.9-3.9-8.8-8.8-8.8l-182.1,0c2.6-11.6,4-23.7,4-36.1c0-4.5-0.2-9-0.6-13.4h178.6
		c4.9,0,8.8-3.9,8.8-8.8c0-4.9-3.9-8.8-8.8-8.8H303c-3.4-17.7-9.7-34.3-18.4-49.5h199.5c4.9,0,8.8-3.9,8.8-8.8
		c0-4.9-3.9-8.8-8.8-8.8l-211.2,0c-29.6-38.7-76.2-63.7-128.7-63.7V11C144.2,5,149.1,0,155.2,0L155.2,0z M144.2,233.5
		C64.6,233.5,0,298.1,0,377.7c0,79.6,64.6,144.2,144.2,144.2c79.6,0,144.2-64.6,144.2-144.2C288.4,298.1,223.8,233.5,144.2,233.5
		L144.2,233.5z M144.2,328.4c-27.2,0-49.3,22.1-49.3,49.3S117,427,144.2,427s49.3-22.1,49.3-49.3S171.4,328.4,144.2,328.4z
		 M165,290.6l-6.7-17.3h-28.3l-6.7,17.3c-9.2,2.2-18,5.9-26.1,10.8l-17-7.5l-20,20l7.5,17c-5,8.1-8.6,16.9-10.8,26.1l-17.3,6.7v28.3
		l17.3,6.7c2.2,9.2,5.9,18,10.8,26.1l-7.5,16.9l20,20l17-7.5c8.1,5,16.9,8.6,26.1,10.8l6.7,17.3h28.3l6.7-17.3
		c9.2-2.2,18-5.9,26.1-10.8l16.9,7.5l20-20l-7.5-17c5-8.1,8.6-16.9,10.8-26.1l17.3-6.7v-28.3l-17.3-6.7c-2.2-9.2-5.9-18-10.8-26.1
		l7.5-16.9l-20-20l-17,7.5C183,296.5,174.2,292.8,165,290.6L165,290.6z M336.5,68.9c-42.6,0-77.1,34.5-77.1,77.1
		s34.5,77.1,77.1,77.1s77.1-34.5,77.1-77.1S379,68.9,336.5,68.9z M367.3,119.2c-4-9.6-11.9-16.3-22-18.8v-3.1c0-4.9-3.9-8.8-8.8-8.8
		s-8.8,3.9-8.8,8.8v3.3c-13,3.4-22.8,13.8-22.1,27.8c0.8,16.7,15,23.7,29.6,26.1c6.2,1,16.3,3.1,17.2,10.7c0.1,0.5,0.1,0.8,0.1,0.9
		c0.1,6-7.8,8.3-12.5,8.9c-1.1,0.1-1.9,0.2-2.6,0.2c-7.1,0.2-15.1-2.9-17-10.5c-1.2-4.7-5.9-7.6-10.6-6.4c-4.7,1.2-7.6,5.9-6.4,10.6
		c3,12.1,12.6,20.1,24.4,22.8v3.1c0,4.9,3.9,8.8,8.8,8.8s8.8-3.9,8.8-8.8v-2.9c13.3-2.7,25-11.5,24.7-26.2c0-1-0.1-1.9-0.2-2.6
		c-2.1-17.1-16.8-23.5-31.9-26c-5.3-0.9-14.5-2.8-14.9-9.6c-0.3-5.8,4.8-9.2,9.9-10.2c7.4-1.5,15,1.5,18,8.7c1.9,4.5,7,6.6,11.5,4.7
		C367.1,128.8,369.2,123.6,367.3,119.2L367.3,119.2z M475.3,8.8v44.7H520L475.3,8.8z M336.5,45.1c-55.7,0-100.9,45.2-100.9,100.9
		c0,55.7,45.2,100.9,100.9,100.9S437.4,201.7,437.4,146C437.4,90.2,392.2,45.1,336.5,45.1L336.5,45.1z"/>
</g>
</svg>
