<?xml version="1.0" encoding="utf-8"?>
<!-- Generator: Adobe Illustrator 27.2.0, SVG Export Plug-In . SVG Version: 6.00 Build 0)  -->
<svg version="1.1" id="Layer_1" xmlns="http://www.w3.org/2000/svg" xmlns:xlink="http://www.w3.org/1999/xlink" x="0px" y="0px"
	 viewBox="0 0 466.8 466.8" style="enable-background:new 0 0 466.8 466.8;" xml:space="preserve">
<g>
	<path d="M462.6,109.7l-93.4,101.4c-0.1,0.1-0.2,0.2-0.4,0.3c-15.6,15.4-35.9,23.1-56.2,23.1c-12.1,0-24.3-2.7-35.4-8.2l-80.1,80.1
		l5.9,5.9L58.4,456.7c-5.8,5.8-13.3,9.1-20.9,9.9c-1.1,0.1-2.2,0.2-3.3,0.2c-0.5,0-1.1,0-1.6,0c-3.3-0.2-6.5-0.8-9.7-1.9
		c-0.5-0.2-1-0.4-1.6-0.6c-4.1-1.7-8-4.2-11.3-7.5s-5.8-7.2-7.5-11.3c-0.2-0.5-0.4-1-0.6-1.6c-1.1-3.1-1.7-6.4-1.9-9.7
		c-0.1-1.6,0-3.3,0.1-4.9c0.7-7.6,4-15.1,9.9-20.9l144.5-144.5l5.9,5.9l80.1-80.1c-14.7-29.9-9.6-67.2,15.3-92.1l0,0L357.2,4.2
		c3.1-3.1,6.6-4.2,9.7-4.2c3,0,5.5,1.1,6.8,2.3L267.1,108.8l0,0L373.6,2.3c2.5,2.5,4.3,10.2-1.9,16.4l-93.4,101.3l22.9,22.9
		l101.3-93.4c3.1-3.1,6.6-4.2,9.7-4.2c3,0,5.5,1.1,6.8,2.3L312.5,154.3l0,0L419,47.8c2.5,2.5,4.3,10.2-1.9,16.4l-93.4,101.3l23,23
		l101.3-93.4c3.1-3.1,6.6-4.2,9.7-4.2c3,0,5.5,1.1,6.8,2.3L358,199.7l0,0L464.5,93.2C467,95.7,468.8,103.5,462.6,109.7L462.6,109.7z
		 M298.6,263.8l-5.9,5.9l-16.3-16.3l-36.6,36.6l16.3,16.3l-5.9,5.9l144.5,144.5c13.4,13.4,35,13.4,48.4,0c13.4-13.4,13.4-35,0-48.4
		L298.6,263.8z M160.2,243.5l53.1-53.1L197.1,174L92.9,69.9C82.3,59.3,51.8,36,38.8,47.8c0,0,0,0,0,0c-22.8,22.8,8.1,90.7,69,151.6
		C125.1,216.7,143,231.5,160.2,243.5L160.2,243.5z"/>
</g>
</svg>
