<?xml version="1.0" encoding="utf-8"?>
<!-- Generator: Adobe Illustrator 27.2.0, SVG Export Plug-In . SVG Version: 6.00 Build 0)  -->
<svg version="1.1" id="Layer_1" xmlns="http://www.w3.org/2000/svg" xmlns:xlink="http://www.w3.org/1999/xlink" x="0px" y="0px"
	 viewBox="0 0 492.9 435.1" style="enable-background:new 0 0 492.9 435.1;" xml:space="preserve">
<path d="M453.2,39.8c-53-53-139-53-192,0l-13.5,13.5c-40.6,50.9-37.4,125.4,9.7,172.5l0,0c1.3,1.1,2.1,2.7,2.1,4.5c0,3.3-2.7,6-6,6
	c-1.8,0-3.4-0.8-4.5-2.1l-0.1,0.1c-51.4-51.4-55-132.6-10.9-188.2l-6.3-6.3c-53-53-138.9-53-192,0s-53,138.9,0,191.9l206.7,206.7
	l206.7-206.7C506.2,178.7,506.2,92.8,453.2,39.8L453.2,39.8z M439.2,146.6c0,10.8-8.8,19.6-19.6,19.6h-34.1v34.1
	c0,10.8-8.8,19.6-19.6,19.6h-14.7c-10.8,0-19.6-8.8-19.6-19.6v-34.1h-34.1c-10.8,0-19.6-8.8-19.6-19.6v-14.7
	c0-10.8,8.8-19.6,19.6-19.6h34.1V78.2c0-10.8,8.8-19.6,19.6-19.6h14.7c10.8,0,19.6,8.8,19.6,19.6v34.1h34.1
	c10.8,0,19.6,8.8,19.6,19.6V146.6z"/>
</svg>
