<?xml version="1.0" encoding="utf-8"?>
<!-- Generator: Adobe Illustrator 27.2.0, SVG Export Plug-In . SVG Version: 6.00 Build 0)  -->
<svg version="1.1" id="Layer_1" xmlns="http://www.w3.org/2000/svg" xmlns:xlink="http://www.w3.org/1999/xlink" x="0px" y="0px"
	 viewBox="0 0 532 490.5" style="enable-background:new 0 0 532 490.5;" xml:space="preserve">
<g>
	<path d="M233.9,322.1c0-88.4,71.6-160,160-160c44.3,0,84.4,18,113.3,47.1c1.6-5.3,2.9-10.7,4-16.1
		C540.4,50.2,381.5-52.5,273.7,37.7c-6.3,5.2-11.8,11.1-16.3,17.4c-4.5-6.3-10-12.2-16.3-17.4C133.4-52.5-25.6,50.2,3.5,193.1
		c4.7,23.3,13.9,46.1,28,66.9c13.5,20.1,57.7,100.9,226,230.5c16.4-12.6,31.6-24.8,45.7-36.5C261.3,425.1,233.9,376.8,233.9,322.1
		L233.9,322.1z"/>
	<path d="M393.9,184c-76.3,0-138.1,61.8-138.1,138.1s61.8,138.1,138.1,138.1c76.3,0,138.1-61.8,138.1-138.1
		C532,245.9,470.2,184,393.9,184z M454.8,291.4c0,2.8-2.2,5-5,5h-17.8c-2.8,0-5-2.2-5-5v-0.3c0-7.5-9.2-15.1-21.8-17.9
		c-7.4-2.4-15.4-2.4-22.6,0c-12.8,2.9-22,10.5-22,18v0.8c0,3.9,2.6,7.8,7.3,11.1c1.9,1.3,4.2,2.5,6.6,3.4c3.4,1.3,7.3,2.1,11.7,2.4
		l15.4,0.9c4.7,0.3,8.8,0.8,12.5,1.7c8.1,1.9,15.5,5.1,21.8,9.4c12.1,8.3,18.8,19.7,18.8,32.2c0,21-19.7,39.4-47,44.1v11
		c0,2.7-2.2,5-5,5H385c-2.8,0-5-2.2-5-5v-11c-27.4-4.8-47-23.1-47-44.1v-0.3c0-2.7,2.2-5,5-5h17.8c2.7,0,5,2.2,5,5v0.3
		c0,7.5,9.2,15.1,21.8,17.9l0.2,0c7.2,2.3,15.2,2.3,22.4,0c12.8-2.9,22-10.5,22-18c0-3.9-2.6-7.8-7.3-11.1c-1.9-1.3-4.2-2.5-6.6-3.4
		c-3.4-1.3-7.3-2.1-11.7-2.4l-15.4-0.9c-4.7-0.3-8.8-0.8-12.5-1.7c-8.1-1.9-15.5-5.1-21.8-9.4c-12.1-8.3-18.8-19.7-18.8-32.2v-0.8
		c0-21,19.7-39.4,47-44.1v-10.9c0-2.7,2.2-5,5-5h17.8c2.8,0,5,2.2,5,5V247c27.4,4.8,47,23.1,47,44.1L454.8,291.4z"/>
</g>
</svg>
