<?xml version="1.0" encoding="utf-8"?>
<!-- Generator: Adobe Illustrator 27.2.0, SVG Export Plug-In . SVG Version: 6.00 Build 0)  -->
<svg version="1.1" id="Layer_1" xmlns="http://www.w3.org/2000/svg" xmlns:xlink="http://www.w3.org/1999/xlink" x="0px" y="0px"
	 viewBox="0 0 532 527.7" style="enable-background:new 0 0 532 527.7;" xml:space="preserve">
<path d="M528.5,255.2L288,9.3c-12.1-12.4-31.9-12.4-44,0l-84.2,86.1V84.8c0-16.3-13.2-29.6-29.6-29.6h-27.5
	c-16.3,0-29.6,13.2-29.6,29.6V184L3.5,255.2c-7.6,7.8-2.1,20.9,8.8,20.9h63.3V497c0,17,13.8,30.7,30.8,30.7h59.9
	c17,0,30.7-13.8,30.7-30.7V358.2c0-10.2,8.3-18.4,18.4-18.4h101c10.2,0,18.4,8.2,18.4,18.4V497c0,17,13.8,30.7,30.7,30.7h59.9
	c17,0,30.8-13.8,30.8-30.7l0-220.8h63.3C530.6,276.2,536.1,263,528.5,255.2L528.5,255.2z"/>
</svg>
