<?xml version="1.0" encoding="UTF-8"?>
<svg id="Layer_1" data-name="Layer 1" xmlns="http://www.w3.org/2000/svg" viewBox="0 0 447.37 90.67">
  <defs>
    <style>
      .cls-1 {
        fill: #00c2f3;
      }

      .cls-2 {
        fill: #231f20;
      }
    </style>
  </defs>
  <g>
    <path class="cls-1" d="m43.57,59.3c0-16.47,13.34-29.8,29.8-29.8,8.25,0,15.72,3.35,21.11,8.77.3-.99.54-1.99.75-3,5.44-26.62-24.16-45.75-44.24-28.95-1.17.97-2.2,2.07-3.04,3.24-.84-1.17-1.86-2.27-3.04-3.24C24.85-10.48-4.77,8.65.65,35.27c.88,4.34,2.59,8.59,5.22,12.46,2.51,3.74,10.75,18.8,42.1,42.94,3.05-2.35,5.89-4.62,8.51-6.8-7.81-5.38-12.91-14.38-12.91-24.57h0Z"/>
    <path class="cls-1" d="m73.38,33.57c-14.21,0-25.73,11.51-25.73,25.73s11.51,25.73,25.73,25.73,25.73-11.51,25.73-25.73-11.51-25.73-25.73-25.73Zm11.34,20.01c0,.52-.41.93-.93.93h-3.32c-.52,0-.93-.41-.93-.93v-.06c0-1.4-1.71-2.81-4.06-3.33-1.38-.45-2.87-.45-4.21,0-2.38.54-4.1,1.96-4.1,3.35v.15c0,.73.48,1.45,1.36,2.07.35.24.78.47,1.23.63.63.24,1.36.39,2.18.45l2.87.17c.88.06,1.64.15,2.33.32,1.51.35,2.89.95,4.06,1.75,2.25,1.55,3.5,3.67,3.5,6,0,3.91-3.67,7.34-8.76,8.21v2.05c0,.5-.41.93-.93.93h-3.3c-.52,0-.93-.41-.93-.93v-2.05c-5.1-.89-8.76-4.3-8.76-8.21v-.06c0-.5.41-.93.93-.93h3.32c.5,0,.93.41.93.93v.06c0,1.4,1.71,2.81,4.06,3.33h.04c1.34.43,2.83.43,4.17,0,2.38-.54,4.1-1.96,4.1-3.35,0-.73-.48-1.45-1.36-2.07-.35-.24-.78-.47-1.23-.63-.63-.24-1.36-.39-2.18-.45l-2.87-.17c-.88-.06-1.64-.15-2.33-.32-1.51-.35-2.89-.95-4.06-1.75-2.25-1.55-3.5-3.67-3.5-6v-.15c0-3.91,3.67-7.34,8.76-8.21v-2.03c0-.5.41-.93.93-.93h3.32c.52,0,.93.41.93.93v2.03c5.1.89,8.76,4.3,8.76,8.21l-.02.06Z"/>
  </g>
  <g>
    <path class="cls-2" d="m145.46,25.61c3.3,0,5.73.79,7.29,2.38,1.57,1.59,2.6,3.64,3.09,6.15l-1.05-.56.49-.99c.49-.95,1.26-1.97,2.29-3.06,1.03-1.09,2.28-2.02,3.74-2.78,1.46-.76,3.1-1.14,4.91-1.14,2.97,0,5.22.64,6.77,1.92,1.54,1.28,2.61,2.98,3.18,5.1.58,2.12.87,4.48.87,7.08v15.82c0,1.07-.35,1.97-1.05,2.69-.7.72-1.59,1.08-2.66,1.08s-1.96-.36-2.66-1.08c-.7-.72-1.05-1.62-1.05-2.69v-15.82c0-1.36-.17-2.58-.49-3.68-.33-1.09-.93-1.97-1.79-2.63-.87-.66-2.1-.99-3.71-.99s-2.9.33-4.02.99c-1.11.66-1.95,1.54-2.5,2.63-.56,1.09-.83,2.32-.83,3.68v15.82c0,1.07-.35,1.97-1.05,2.69-.7.72-1.59,1.08-2.66,1.08s-1.96-.36-2.66-1.08c-.7-.72-1.05-1.62-1.05-2.69v-15.82c0-1.36-.17-2.58-.49-3.68-.33-1.09-.93-1.97-1.79-2.63-.87-.66-2.1-.99-3.71-.99s-2.9.33-4.02.99c-1.11.66-1.95,1.54-2.5,2.63-.56,1.09-.83,2.32-.83,3.68v15.82c0,1.07-.35,1.97-1.05,2.69-.7.72-1.59,1.08-2.66,1.08s-1.96-.36-2.66-1.08c-.7-.72-1.05-1.62-1.05-2.69v-25.53c0-1.07.35-1.97,1.05-2.69.7-.72,1.59-1.08,2.66-1.08s1.96.36,2.66,1.08c.7.72,1.05,1.62,1.05,2.69v2.66l-.93-.19c.37-.7.89-1.45,1.54-2.26.66-.8,1.46-1.55,2.41-2.26.95-.7,2-1.27,3.15-1.7,1.15-.43,2.41-.65,3.77-.65Z"/>
    <path class="cls-2" d="m209.3,26.23c1.07,0,1.96.36,2.66,1.08.7.72,1.05,1.62,1.05,2.69v26.27c0,3.79-.71,6.81-2.13,9.05-1.42,2.25-3.33,3.86-5.72,4.85-2.39.99-5.07,1.48-8.03,1.48-1.32,0-2.72-.1-4.2-.31-1.48-.21-2.7-.52-3.65-.93-1.24-.54-2.09-1.21-2.56-2.01-.47-.8-.57-1.66-.28-2.56.37-1.2.97-2.01,1.79-2.44.82-.43,1.69-.48,2.6-.15.66.21,1.52.53,2.6.96,1.07.43,2.31.65,3.71.65,1.89,0,3.47-.26,4.73-.77,1.26-.52,2.2-1.38,2.84-2.6.64-1.22.96-2.87.96-4.98v-4.14l1.3,1.48c-.7,1.36-1.58,2.48-2.63,3.37-1.05.89-2.3,1.56-3.74,2.01-1.44.45-3.09.68-4.94.68-2.18,0-4.09-.51-5.72-1.51-1.63-1.01-2.9-2.41-3.8-4.2-.91-1.79-1.36-3.84-1.36-6.15v-18.05c0-1.07.35-1.97,1.05-2.69.7-.72,1.59-1.08,2.66-1.08s1.96.36,2.66,1.08c.7.72,1.05,1.62,1.05,2.69v15.82c0,2.68.59,4.56,1.76,5.66,1.17,1.09,2.81,1.64,4.91,1.64,1.44,0,2.66-.28,3.65-.83.99-.56,1.75-1.38,2.29-2.47.54-1.09.8-2.42.8-3.99v-15.82c0-1.07.35-1.97,1.05-2.69.7-.72,1.59-1.08,2.66-1.08Z"/>
    <path class="cls-2" d="m229.08,55.53c0,1.07-.36,1.97-1.08,2.69-.72.72-1.62,1.08-2.69,1.08s-1.9-.36-2.6-1.08c-.7-.72-1.05-1.62-1.05-2.69V17.33c0-1.07.36-1.97,1.08-2.69.72-.72,1.62-1.08,2.69-1.08s1.95.36,2.63,1.08c.68.72,1.02,1.62,1.02,2.69v38.2Z"/>
    <path class="cls-2" d="m261.34,26.23c1.07,0,1.96.36,2.66,1.08.7.72,1.05,1.62,1.05,2.69v26.27c0,3.79-.71,6.81-2.13,9.05-1.42,2.25-3.33,3.86-5.72,4.85-2.39.99-5.07,1.48-8.03,1.48-1.32,0-2.72-.1-4.2-.31-1.48-.21-2.7-.52-3.65-.93-1.24-.54-2.09-1.21-2.56-2.01-.47-.8-.57-1.66-.28-2.56.37-1.2.97-2.01,1.79-2.44s1.69-.48,2.6-.15c.66.21,1.52.53,2.6.96s2.31.65,3.71.65c1.89,0,3.47-.26,4.73-.77,1.26-.52,2.2-1.38,2.84-2.6.64-1.22.96-2.87.96-4.98v-4.14l1.3,1.48c-.7,1.36-1.58,2.48-2.63,3.37-1.05.89-2.3,1.56-3.74,2.01-1.44.45-3.09.68-4.94.68-2.18,0-4.09-.51-5.72-1.51-1.63-1.01-2.9-2.41-3.8-4.2-.91-1.79-1.36-3.84-1.36-6.15v-18.05c0-1.07.35-1.97,1.05-2.69.7-.72,1.59-1.08,2.66-1.08s1.96.36,2.66,1.08c.7.72,1.05,1.62,1.05,2.69v15.82c0,2.68.59,4.56,1.76,5.66,1.17,1.09,2.81,1.64,4.91,1.64,1.44,0,2.66-.28,3.65-.83.99-.56,1.75-1.38,2.29-2.47.54-1.09.8-2.42.8-3.99v-15.82c0-1.07.35-1.97,1.05-2.69.7-.72,1.59-1.08,2.66-1.08Z"/>
    <path class="cls-2" d="m290.76,26.85c.99,0,1.81.32,2.47.96.66.64.99,1.45.99,2.44s-.33,1.8-.99,2.44c-.66.64-1.48.96-2.47.96h-16.38c-.99,0-1.81-.32-2.47-.96-.66-.64-.99-1.45-.99-2.44s.33-1.8.99-2.44c.66-.64,1.48-.96,2.47-.96h16.38Zm-.68-13.29c.91,0,1.79.12,2.66.37.87.25,1.59.65,2.16,1.21.58.56.87,1.29.87,2.19,0,1.03-.3,1.84-.9,2.44-.6.6-1.29.9-2.07.9-.37,0-.93-.09-1.67-.28-.74-.19-1.46-.28-2.16-.28-1.03,0-1.82.23-2.38.68-.56.45-.94.98-1.14,1.58-.21.6-.31,1.12-.31,1.58v31.58c0,1.07-.35,1.97-1.05,2.69-.7.72-1.59,1.08-2.66,1.08s-1.96-.36-2.66-1.08c-.7-.72-1.05-1.62-1.05-2.69v-31.52c0-2.93,1.03-5.4,3.09-7.42,2.06-2.02,5.15-3.03,9.27-3.03Z"/>
    <path class="cls-2" d="m313.81,59.92c-3.5,0-6.54-.73-9.12-2.19-2.58-1.46-4.55-3.45-5.93-5.96-1.38-2.51-2.07-5.36-2.07-8.53,0-3.71.75-6.87,2.26-9.49,1.5-2.62,3.47-4.62,5.9-6.03,2.43-1.4,5.01-2.1,7.73-2.1,2.1,0,4.09.43,5.96,1.3,1.87.87,3.53,2.05,4.97,3.55,1.44,1.5,2.58,3.25,3.43,5.22.84,1.98,1.27,4.08,1.27,6.3-.04.99-.43,1.79-1.17,2.41-.74.62-1.61.93-2.6.93h-23.61l-1.85-6.18h22.68l-1.36,1.24v-1.67c-.08-1.19-.5-2.27-1.27-3.21-.76-.95-1.71-1.7-2.84-2.26-1.13-.56-2.34-.83-3.62-.83s-2.39.17-3.46.49c-1.07.33-2,.89-2.78,1.67s-1.4,1.83-1.85,3.15c-.45,1.32-.68,2.99-.68,5.01,0,2.22.46,4.11,1.39,5.65.93,1.55,2.12,2.72,3.58,3.52,1.46.8,3.02,1.21,4.67,1.21,1.52,0,2.74-.12,3.65-.37s1.64-.55,2.19-.9c.56-.35,1.06-.65,1.51-.9.74-.37,1.44-.56,2.1-.56.91,0,1.66.31,2.26.93.6.62.9,1.34.9,2.16,0,1.11-.58,2.12-1.73,3.03-1.07.91-2.58,1.7-4.51,2.38-1.94.68-3.94,1.02-6,1.02Z"/>
    <path class="cls-2" d="m362.02,25.61c1.07,0,1.96.35,2.66,1.05.7.7,1.05,1.61,1.05,2.72v26.14c0,1.07-.35,1.97-1.05,2.69-.7.72-1.59,1.08-2.66,1.08s-1.96-.36-2.66-1.08c-.7-.72-1.05-1.62-1.05-2.69v-3.03l1.36.56c0,.54-.29,1.19-.87,1.95-.58.76-1.36,1.51-2.35,2.26s-2.15,1.37-3.49,1.89c-1.34.51-2.79.77-4.36.77-2.84,0-5.42-.73-7.73-2.19-2.31-1.46-4.13-3.48-5.47-6.06-1.34-2.57-2.01-5.53-2.01-8.87s.67-6.35,2.01-8.93c1.34-2.57,3.14-4.59,5.41-6.06,2.27-1.46,4.78-2.19,7.54-2.19,1.77,0,3.4.27,4.88.8,1.48.54,2.77,1.22,3.86,2.04,1.09.82,1.94,1.66,2.53,2.5.6.84.9,1.56.9,2.13l-2.22.8v-4.51c0-1.07.35-1.97,1.05-2.69.7-.72,1.59-1.08,2.66-1.08Zm-12.48,27.5c1.81,0,3.4-.45,4.76-1.36,1.36-.91,2.42-2.14,3.18-3.71.76-1.57,1.14-3.32,1.14-5.25s-.38-3.75-1.14-5.31c-.76-1.57-1.82-2.8-3.18-3.71-1.36-.91-2.95-1.36-4.76-1.36s-3.34.45-4.7,1.36c-1.36.91-2.42,2.14-3.18,3.71-.76,1.57-1.14,3.34-1.14,5.31s.38,3.69,1.14,5.25c.76,1.57,1.82,2.8,3.18,3.71,1.36.91,2.92,1.36,4.7,1.36Z"/>
    <path class="cls-2" d="m390.88,25.61c2.88,0,5.47.73,7.76,2.19,2.29,1.46,4.1,3.47,5.44,6.03,1.34,2.56,2.01,5.52,2.01,8.9s-.67,6.36-2.01,8.93c-1.34,2.58-3.13,4.59-5.38,6.06-2.25,1.46-4.77,2.19-7.57,2.19-1.65,0-3.19-.27-4.64-.8-1.44-.53-2.71-1.21-3.8-2.04-1.09-.82-1.94-1.66-2.53-2.5-.6-.84-.9-1.55-.9-2.13l1.92-.8v16.25c0,1.07-.35,1.97-1.05,2.69-.7.72-1.59,1.08-2.66,1.08s-1.96-.35-2.66-1.05c-.7-.7-1.05-1.61-1.05-2.72V30c0-1.07.35-1.97,1.05-2.69.7-.72,1.58-1.08,2.66-1.08s1.96.36,2.66,1.08c.7.72,1.05,1.62,1.05,2.69v3.03l-1.05-.56c0-.54.29-1.18.87-1.95.58-.76,1.36-1.52,2.35-2.29.99-.76,2.13-1.39,3.43-1.89s2.67-.74,4.11-.74Zm-.93,6.8c-1.81,0-3.4.45-4.76,1.36-1.36.91-2.42,2.13-3.18,3.68-.76,1.55-1.14,3.31-1.14,5.28s.38,3.7,1.14,5.28c.76,1.59,1.82,2.83,3.18,3.74,1.36.91,2.95,1.36,4.76,1.36s3.39-.45,4.73-1.36c1.34-.91,2.39-2.15,3.15-3.74.76-1.59,1.14-3.35,1.14-5.28s-.38-3.74-1.14-5.28c-.76-1.54-1.81-2.77-3.15-3.68-1.34-.91-2.92-1.36-4.73-1.36Z"/>
    <path class="cls-2" d="m429.69,25.61c2.88,0,5.47.73,7.76,2.19,2.29,1.46,4.1,3.47,5.44,6.03,1.34,2.56,2.01,5.52,2.01,8.9s-.67,6.36-2.01,8.93c-1.34,2.58-3.13,4.59-5.38,6.06-2.25,1.46-4.77,2.19-7.57,2.19-1.65,0-3.19-.27-4.64-.8-1.44-.53-2.71-1.21-3.8-2.04-1.09-.82-1.94-1.66-2.53-2.5-.6-.84-.9-1.55-.9-2.13l1.92-.8v16.25c0,1.07-.35,1.97-1.05,2.69-.7.72-1.59,1.08-2.66,1.08s-1.96-.35-2.66-1.05c-.7-.7-1.05-1.61-1.05-2.72V30c0-1.07.35-1.97,1.05-2.69.7-.72,1.58-1.08,2.66-1.08s1.96.36,2.66,1.08c.7.72,1.05,1.62,1.05,2.69v3.03l-1.05-.56c0-.54.29-1.18.87-1.95.58-.76,1.36-1.52,2.35-2.29.99-.76,2.13-1.39,3.43-1.89s2.67-.74,4.11-.74Zm-.93,6.8c-1.81,0-3.4.45-4.76,1.36-1.36.91-2.42,2.13-3.18,3.68-.76,1.55-1.14,3.31-1.14,5.28s.38,3.7,1.14,5.28c.76,1.59,1.82,2.83,3.18,3.74,1.36.91,2.95,1.36,4.76,1.36s3.39-.45,4.73-1.36c1.34-.91,2.39-2.15,3.15-3.74.76-1.59,1.14-3.35,1.14-5.28s-.38-3.74-1.14-5.28c-.76-1.54-1.81-2.77-3.15-3.68-1.34-.91-2.92-1.36-4.73-1.36Z"/>
  </g>
</svg>